<svg xmlns="http://www.w3.org/2000/svg" xmlns:xlink="http://www.w3.org/1999/xlink" version="1.1" x="0px" y="0px" viewBox="0 0 100 125" style="enable-background:new 0 0 100 100;" xml:space="preserve"><style type="text/css">
	.st0{fill:none;stroke:#000000;stroke-width:2;stroke-linecap:round;stroke-linejoin:round;stroke-miterlimit:10;}
</style><path d="M18.9,9.8h-6.2c-1.7,0-3.1,1.4-3.1,3.1v72.3c0,1.7,1.4,3.1,3.1,3.1h6.2c1.7,0,3.1-1.4,3.1-3.1V12.9  C22,11.2,20.6,9.8,18.9,9.8z M11.5,27.4H20v43.4h-8.5V27.4z M20,25.4h-8.5V21H20V25.4z M11.5,72.8H20v4.4h-8.5V72.8z M12.6,11.8h6.2  c0.6,0,1.1,0.5,1.1,1.1V19h-8.5v-6.1C11.5,12.3,12,11.8,12.6,11.8z M18.9,86.3h-6.2c-0.6,0-1.1-0.5-1.1-1.1v-6H20v6  C20,85.8,19.5,86.3,18.9,86.3z"/><path d="M32.7,9.8h-6.2c-1.7,0-3.1,1.4-3.1,3.1v72.3c0,1.7,1.4,3.1,3.1,3.1h6.2c1.7,0,3.1-1.4,3.1-3.1V12.9  C35.9,11.2,34.5,9.8,32.7,9.8z M25.4,27.4h8.5v43.4h-8.5V27.4z M33.9,25.4h-8.5V21h8.5V25.4z M25.4,72.8h8.5v4.4h-8.5V72.8z   M26.5,11.8h6.2c0.6,0,1.1,0.5,1.1,1.1V19h-8.5v-6.1C25.4,12.3,25.9,11.8,26.5,11.8z M32.7,86.3h-6.2c-0.6,0-1.1-0.5-1.1-1.1v-6h8.5  v6C33.9,85.8,33.4,86.3,32.7,86.3z"/><path d="M54.9,56.7h-9.9c-0.6,0-1,0.4-1,1s0.4,1,1,1h9.9c0.6,0,1-0.4,1-1S55.5,56.7,54.9,56.7z"/><path d="M59.6,9.8H40.4c-1.7,0-3.1,1.4-3.1,3.1v72.3c0,1.7,1.4,3.1,3.1,3.1h19.2c1.7,0,3.1-1.4,3.1-3.1V12.9  C62.7,11.2,61.3,9.8,59.6,9.8z M39.3,27.4h21.5v43.4H39.3V27.4z M60.7,25.4H39.3V21h21.5V25.4z M39.3,72.8h21.5v4.4H39.3V72.8z   M40.4,11.8h19.2c0.6,0,1.1,0.5,1.1,1.1V19H39.3v-6.1C39.3,12.3,39.8,11.8,40.4,11.8z M59.6,86.3H40.4c-0.6,0-1.1-0.5-1.1-1.1v-6  h21.5v6C60.7,85.8,60.2,86.3,59.6,86.3z"/><path d="M29.6,36.6c-0.6,0-1,0.4-1,1v22.9c0,0.6,0.4,1,1,1s1-0.4,1-1V37.6C30.6,37,30.2,36.6,29.6,36.6z"/><path d="M15.8,36.6c-0.6,0-1,0.4-1,1v22.9c0,0.6,0.4,1,1,1s1-0.4,1-1V37.6C16.8,37,16.3,36.6,15.8,36.6z"/><path d="M87.4,9.8H68.1c-1.7,0-3.1,1.4-3.1,3.1v72.3c0,1.7,1.4,3.1,3.1,3.1h19.2c1.7,0,3.1-1.4,3.1-3.1V12.9  C90.5,11.2,89.1,9.8,87.4,9.8z M67,27.4h21.5v43.4H67V27.4z M88.5,25.4H67V21h21.5V25.4z M67,72.8h21.5v4.4H67V72.8z M68.1,11.8  h19.2c0.6,0,1.1,0.5,1.1,1.1V19H67v-6.1C67,12.3,67.5,11.8,68.1,11.8z M87.4,86.3H68.1c-0.6,0-1.1-0.5-1.1-1.1v-6h21.5v6  C88.5,85.8,88,86.3,87.4,86.3z"/><path d="M50,53.9c4,0,7.3-3.3,7.3-7.3c0-4-3.3-7.3-7.3-7.3s-7.3,3.3-7.3,7.3C42.7,50.6,46,53.9,50,53.9z M50,41.3  c2.9,0,5.3,2.4,5.3,5.3s-2.4,5.3-5.3,5.3s-5.3-2.4-5.3-5.3S47.1,41.3,50,41.3z"/><text x="0" y="115" fill="#000000" font-size="5px" font-weight="bold" font-family="'Helvetica Neue', Helvetica, Arial-Unicode, Arial, Sans-serif">Created by Made Somewhere</text><text x="0" y="120" fill="#000000" font-size="5px" font-weight="bold" font-family="'Helvetica Neue', Helvetica, Arial-Unicode, Arial, Sans-serif">from the Noun Project</text></svg>