<svg xmlns="http://www.w3.org/2000/svg" xmlns:xlink="http://www.w3.org/1999/xlink" version="1.1" x="0px" y="0px" viewBox="0 0 144.083 180" enable-background="new 0 0 144.083 144" xml:space="preserve"><path d="M116.483,52.803c2.014-3.963,3.35-7.733,3.35-10.98c0-12.936-10.523-23.459-23.459-23.459S72.915,28.887,72.915,41.822  c0,3.247,1.336,7.018,3.351,10.981l-4.224,1.545l-24.333-8.904L20.375,55.446v70.19l27.333-10l24.333,8.902l24.332-8.902l27.334,10  v-70.19L116.483,52.803z M44.708,110.346l-18.333,6.707V59.64l18.333-6.709V110.346z M69.042,117.053l-18.334-6.707V52.931  l18.334,6.709V117.053z M96.374,24.363c9.627,0,17.459,7.832,17.459,17.459c0,5.535-6.64,15.233-11.975,23.027  c-2.251,3.288-4.097,6.013-5.484,8.316c-1.388-2.304-3.233-5.028-5.484-8.316c-5.335-7.794-11.975-17.492-11.975-23.027  C78.915,32.195,86.747,24.363,96.374,24.363z M93.374,110.346l-18.332,6.707V59.64l4.21-1.54c2.083,3.411,4.438,6.855,6.687,10.139  c3.117,4.554,7.386,10.789,7.436,12.561v0.008v0.002v0.006v0.006v0.002v0.008V110.346z M117.708,117.053l-18.334-6.707V80.799  c0.05-1.771,4.318-8.007,7.436-12.561c2.248-3.283,4.604-6.729,6.687-10.14l4.212,1.541V117.053z"/><path d="M110.631,41.815c0-7.861-6.396-14.257-14.258-14.257c-7.86,0-14.256,6.396-14.256,14.257s6.396,14.257,14.256,14.257  C104.235,56.072,110.631,49.677,110.631,41.815z M88.118,41.815c0-4.553,3.703-8.257,8.256-8.257c4.554,0,8.258,3.704,8.258,8.257  s-3.704,8.257-8.258,8.257C91.821,50.072,88.118,46.368,88.118,41.815z"/><text x="0" y="159" fill="#000000" font-size="5px" font-weight="bold" font-family="'Helvetica Neue', Helvetica, Arial-Unicode, Arial, Sans-serif">Created by Chanut is Industries</text><text x="0" y="164" fill="#000000" font-size="5px" font-weight="bold" font-family="'Helvetica Neue', Helvetica, Arial-Unicode, Arial, Sans-serif">from the Noun Project</text></svg>