<svg xmlns="http://www.w3.org/2000/svg" xmlns:xlink="http://www.w3.org/1999/xlink" version="1.1" x="0px" y="0px" viewBox="0 0 25 31.25" style="enable-background:new 0 0 25 25;" xml:space="preserve"><style type="text/css">

	.st0{fill:none;stroke:#000000;stroke-width:3;stroke-miterlimit:10;}

</style><g><path d="M12.4,7.7c1.2,0,2.2-1,2.2-2.2c0-1.2-1-2.2-2.2-2.2c-1.2,0-2.2,1-2.2,2.2C10.2,6.7,11.2,7.7,12.4,7.7z M12.4,4.3   c0.7,0,1.2,0.5,1.2,1.2s-0.5,1.2-1.2,1.2c-0.7,0-1.2-0.5-1.2-1.2S11.7,4.3,12.4,4.3z"/><path d="M19.2,6.1c0-0.8-0.7-1.5-1.5-1.5c-0.8,0-1.5,0.7-1.5,1.5c0,1.3-0.6,2.4-1.7,3.1C14.2,8.5,13.4,8,12.5,8s-1.7,0.5-2.1,1.2   C9.3,8.5,8.7,7.4,8.7,6.1c0-0.8-0.7-1.5-1.5-1.5c-0.8,0-1.5,0.7-1.5,1.5c0,2.8,1.7,5.4,4.2,6.4l0,0V22h1V10.8C11,10,11.4,9,12.5,9   s1.5,1,1.5,1.8V22h1v-9.5l0,0C17.5,11.5,19.2,8.9,19.2,6.1z M6.8,6.1c0-0.3,0.2-0.5,0.5-0.5c0.3,0,0.5,0.2,0.5,0.5   c0,1.7,0.9,3.2,2.3,4.1c0,0.2-0.1,0.4-0.1,0.6v0.6C8.1,10.5,6.8,8.4,6.8,6.1z M14.9,10.2c1.4-0.8,2.3-2.4,2.3-4.1   c0-0.3,0.2-0.5,0.5-0.5c0.3,0,0.5,0.2,0.5,0.5c0,2.3-1.4,4.5-3.2,5.3v-0.6C15,10.6,15,10.4,14.9,10.2z"/><path d="M23.1,13.5c-0.8,0-1.4,0.6-1.4,1.3l0,0.1c0,0.9-0.4,1.7-1,2.3c-0.3-0.6-0.9-1-1.6-1.1c0.9-0.3,1.5-1.1,1.5-2.1   c0-1.2-1-2.2-2.2-2.2c-1.2,0-2.2,1-2.2,2.2c0,1,0.6,1.8,1.5,2.1c-1.1,0.2-1.9,1.1-1.9,2.2V22h1v-3.7c0-0.7,0.6-1.3,1.3-1.3h0.4   c0.7,0,1.3,0.6,1.3,1.3V22h1v-1.6c2-1,3.4-3.2,3.4-5.5C24.4,14.1,23.8,13.5,23.1,13.5z M17.3,14c0-0.6,0.5-1.2,1.2-1.2   s1.2,0.5,1.2,1.2s-0.5,1.2-1.2,1.2S17.3,14.6,17.3,14z M21,19.3v-1c0,0,0,0,0,0c1.1-0.8,1.7-2,1.7-3.3l0-0.1c0-0.2,0.2-0.4,0.4-0.4   c0.2,0,0.4,0.2,0.4,0.4C23.4,16.6,22.5,18.4,21,19.3z"/><path d="M7.1,16C8,15.8,8.7,15,8.7,14c0-1.2-1-2.2-2.2-2.2c-1.2,0-2.2,1-2.2,2.2c0,1,0.6,1.8,1.5,2.1c-0.6,0.1-1.1,0.5-1.5,1   c-0.5-0.6-0.8-1.3-0.8-2.2c0-0.8-0.6-1.4-1.4-1.4c-0.8,0-1.4,0.6-1.4,1.4c0,2.3,1.3,4.4,3.2,5.4V22h1v-3.7c0-0.2,0-0.3,0.1-0.5l0,0   C5.3,17.3,5.8,17,6.3,17h0.4C7.4,17,8,17.6,8,18.3V22h1v-3.7C9,17.2,8.2,16.2,7.1,16z M1.8,14.8c0-0.2,0.2-0.4,0.4-0.4   c0.2,0,0.4,0.2,0.4,0.4c0,1.2,0.6,2.4,1.5,3.2c0,0.1,0,0.2,0,0.2v0.8C2.7,18.1,1.8,16.5,1.8,14.8z M5.3,14c0-0.6,0.5-1.2,1.2-1.2   s1.2,0.5,1.2,1.2s-0.5,1.2-1.2,1.2S5.3,14.6,5.3,14z"/></g><text x="0" y="40" fill="#000000" font-size="5px" font-weight="bold" font-family="'Helvetica Neue', Helvetica, Arial-Unicode, Arial, Sans-serif">Created by Filippo Gianessi</text><text x="0" y="45" fill="#000000" font-size="5px" font-weight="bold" font-family="'Helvetica Neue', Helvetica, Arial-Unicode, Arial, Sans-serif">from the Noun Project</text></svg>